<svg id="Layer_1" data-name="Layer 1" xmlns="http://www.w3.org/2000/svg" xmlns:xlink="http://www.w3.org/1999/xlink" width="400" height="72" viewBox="0 0 400 72"><defs><style>.cls-1{fill:none;}.cls-2{fill:#fff;}.cls-3{clip-path:url(#clip-path);}.cls-4{fill:#0599a8;}.cls-5{fill:#54575a;}</style><clipPath id="clip-path"><rect class="cls-1" x="5" width="190.3879" height="72"/></clipPath></defs><rect class="cls-2" width="400" height="72"/><g class="cls-3"><g class="cls-3"><path class="cls-4" d="M66.8543,27.4394q2.4531-.251,3.1488-1.1106t.6964-3.987V4.907l-.54-.6354A4.3691,4.3691,0,0,0,68.68,3.0064a5.7335,5.7335,0,0,0-1.8255-.2808V1.9923h6.7515l15.276,18.9325V7.775q0-3.2445-.9659-4.2239a4.9039,4.9039,0,0,0-2.8212-.8255V1.9923h9.2946v.7333a4.6124,4.6124,0,0,0-3.0154,1.102q-.7532.87-.7532,3.98v20.83h-.6766l-17.5056-21.7v15.405q0,3.2424.946,4.2282a4.8289,4.8289,0,0,0,2.7631.868v.7348H66.8543Z"/><path class="cls-4" d="M95.6663,12.7054a8.164,8.164,0,0,1,6.2891-2.6566,8.5952,8.5952,0,0,1,6.3373,2.512,9.0346,9.0346,0,0,1,2.512,6.6848,9.9488,9.9488,0,0,1-2.4339,6.6862,7.9134,7.9134,0,0,1-6.2991,2.8411,8.3021,8.3021,0,0,1-6.2806-2.7248,9.5816,9.5816,0,0,1-2.5687-6.8394,9.2541,9.2541,0,0,1,2.4439-6.5033m3.085-.4921q-1.9361,1.7595-1.9361,6.0664A13.61,13.61,0,0,0,98.374,24.695q1.5575,2.9765,4.3261,2.9758a3.6806,3.6806,0,0,0,3.34-1.99,10.2154,10.2154,0,0,0,1.17-5.2168,13.8128,13.8128,0,0,0-1.4893-6.2991,4.6749,4.6749,0,0,0-4.3175-2.9559,3.8486,3.8486,0,0,0-2.6524,1.0043"/><path class="cls-4" d="M111.3976,27.5357a4.6772,4.6772,0,0,0,2.3573-.6269,2.5919,2.5919,0,0,0,.58-2.02V16.1745a7.465,7.465,0,0,0-.3574-2.7346,1.305,1.305,0,0,0-1.3049-.8213,3.5522,3.5522,0,0,0-.512.05c-.2128.0312-.4355.0737-.6667.1248v-.6383q1.0978-.3851,2.2538-.7914t1.5985-.58q.9618-.3658,1.9844-.83c.0893,0,.1446.0312.1631.095a1.7582,1.7582,0,0,1,.0283.4071v3.1687a14.7491,14.7491,0,0,1,2.3929-2.6865,3.6958,3.6958,0,0,1,2.3942-.9659,2.23,2.23,0,0,1,1.607.59,2.0888,2.0888,0,0,1,.1475,2.8112,1.515,1.515,0,0,1-1.1886.54,2.22,2.22,0,0,1-1.4779-.6766,2.1034,2.1034,0,0,0-1.1688-.6765q-.6765,0-1.6623,1.0921a3.3531,3.3531,0,0,0-.9858,2.251v8.7145a2.888,2.888,0,0,0,.773,2.3092,3.8806,3.8806,0,0,0,2.57.6084v.6383h-9.5258Z"/><path class="cls-4" d="M143.2183,10.7644a6.194,6.194,0,0,0-1.7206.39,1.0034,1.0034,0,0,0-.56,1.017,3.09,3.09,0,0,0,.1248.851q.1277.44.339,1.0255l3.5162,9.1472,3.43-8.3543a14.6125,14.6125,0,0,0,.5021-1.42,4.9943,4.9943,0,0,0,.2709-1.3233,1.01,1.01,0,0,0-.4439-.966,3.7239,3.7239,0,0,0-1.295-.3673v-.5418h4.9076v.5418a1.35,1.35,0,0,0-.7929.4638,7.8964,7.8964,0,0,0-.868,1.7389l-6.1842,15.2448a1.3393,1.3393,0,0,1-.1347.251.2014.2014,0,0,1-.1745.078.6365.6365,0,0,1-.2695-.21l-4.7218-11.6775-4.7274,11.6548a.4717.4717,0,0,1-.1064.1646.2248.2248,0,0,1-.1645.068.6341.6341,0,0,1-.2695-.1943l-5.7785-14.24a19.1066,19.1066,0,0,0-1.2553-2.7843,1.7853,1.7853,0,0,0-1.217-.5574v-.5418h7.1728v.5418a3.77,3.77,0,0,0-1.3645.322,1.0568,1.0568,0,0,0-.4737,1.0425,11.995,11.995,0,0,0,.7943,2.77q.468,1.236,1.19,3.0055l2.2212,5.4026,3.4154-7.31.0383-.227a5.0086,5.0086,0,0,0-.4127-1.4481q-.4128-1.06-.7957-1.8964a2.8621,2.8621,0,0,0-.878-1.2354,2.8261,2.8261,0,0,0-1.3815-.4255v-.5418h8.0678Z"/><path class="cls-4" d="M165.4437,11.9336a6.8927,6.8927,0,0,1,2.0481,5.343H155.2229q.1935,4.4721,2.03,6.516a5.66,5.66,0,0,0,4.3459,2.0425,5.4821,5.4821,0,0,0,3.4211-1.0595,10.6775,10.6775,0,0,0,2.57-3.0084l.6752.2326a10.9935,10.9935,0,0,1-2.9659,4.5473,7.388,7.388,0,0,1-5.3231,2.0907,6.511,6.511,0,0,1-5.6126-2.7445,10.5126,10.5126,0,0,1-1.9815-6.3175,10.2684,10.2684,0,0,1,2.3007-6.7047,7.3573,7.3573,0,0,1,5.99-2.8226,6.8266,6.8266,0,0,1,4.7714,1.8851m-9.2549,1.4779a7.6243,7.6243,0,0,0-.8879,2.6283h8.1528a7.9931,7.9931,0,0,0-.7347-2.8793,3.3324,3.3324,0,0,0-3.1672-1.7007,3.6939,3.6939,0,0,0-3.363,1.9517"/><path class="cls-4" d="M170.5166,22.0873h.6382a10.1119,10.1119,0,0,0,1.1943,3.3814,4.3735,4.3735,0,0,0,3.953,2.1645,3.1672,3.1672,0,0,0,2.2836-.8028,2.745,2.745,0,0,0,.8383-2.0765,2.8534,2.8534,0,0,0-.4837-1.5659,4.9507,4.9507,0,0,0-1.6992-1.468l-2.163-1.2369a12.32,12.32,0,0,1-3.4978-2.57,4.5132,4.5132,0,0,1-1.1219-3.0523,4.57,4.57,0,0,1,1.546-3.5559,5.5921,5.5921,0,0,1,3.8836-1.3915,7.5432,7.5432,0,0,1,2.2524.3873,10.23,10.23,0,0,0,1.38.3858.9811.9811,0,0,0,.5036-.0965.8044.8044,0,0,0,.2695-.3092h.4638l.1347,5.3913h-.5985a8.9837,8.9837,0,0,0-1.0426-2.9176,3.8365,3.8365,0,0,0-3.4594-1.9319,2.7455,2.7455,0,0,0-2.8977,2.7829q0,1.7765,2.6665,3.1672l2.55,1.373q4.1167,2.24,4.1147,5.2168a4.6681,4.6681,0,0,1-1.7063,3.729,6.664,6.664,0,0,1-4.4651,1.45,10.3982,10.3982,0,0,1-2.624-.3872,11.917,11.917,0,0,0-1.7361-.3858.5679.5679,0,0,0-.4056.1646,1.14,1.14,0,0,0-.2695.3957h-.5021Z"/><path class="cls-4" d="M192.8873,10.3586v1.39h-3.9417l-.04,11.1315a7.3912,7.3912,0,0,0,.2524,2.2211,1.7828,1.7828,0,0,0,1.8156,1.3333,2.1875,2.1875,0,0,0,1.207-.3276,6.3769,6.3769,0,0,0,1.17-1.044l.5021.4255-.4255.5788a6.18,6.18,0,0,1-2.1248,1.9133,4.8372,4.8372,0,0,1-2.1644.56,3.0464,3.0464,0,0,1-3.0921-2.0283,8.4092,8.4092,0,0,1-.4439-3.0538v-11.71h-2.1063a.5089.5089,0,0,1-.1447-.1149.2321.2321,0,0,1-.0482-.1546.4586.4586,0,0,1,.0865-.2993,6.0147,6.0147,0,0,1,.55-.4936,16.4671,16.4671,0,0,0,1.9233-1.7871q.5893-.6852,2.773-3.6226a.65.65,0,0,1,.2992.0383c.0313.0255.0483.1234.0483.2894v4.7544Z"/><path class="cls-4" d="M30.6008-.0007a25.6011,25.6011,0,1,0,25.6,25.6018,25.6,25.6,0,0,0-25.6-25.6018M7.206,20.3133l-.1532-.3219q.2469-1.04.5816-2.0439c2.3445,5.7317,7.0692,12.8789,15.083,15.0235a19.1836,19.1836,0,0,0,4.6424.6411c.1177.0014.1262-.0624.0071-.0766-4.8963-.6057-11.035-3.7686-14.4235-11.6662a26.043,26.043,0,0,1-1.939-10.4747,24.2185,24.2185,0,0,1,25.721-9.2181,17.1018,17.1018,0,0,0-14.9711,4.18c-3.9232,3.8367-5.1,9.2492-3.3147,15.2419,2.5857,8.6734,8.54,11.7669,12.981,10.97a5.8665,5.8665,0,0,0,3.7871-2.3007,5.6152,5.6152,0,0,0,.9063-4.3A4.765,4.765,0,0,0,30.5809,22.12,3.5757,3.5757,0,0,0,27.71,26.4181s.0326.1375-.0553.16-.14-.1007-.14-.1007a3.5151,3.5151,0,0,1-.0085-2.3247,4.075,4.075,0,0,1,3.0169-2.702,5.2394,5.2394,0,0,1,6.3557,4.3246A5.7878,5.7878,0,0,1,35.4743,31.13a8.1583,8.1583,0,0,1-3.8211,2.33,19.9659,19.9659,0,0,1-8.7868.2582C14.7787,32.0958,9.9,25.59,7.206,20.3133m26.6287-2.6467c4.8962.6043,11.0364,3.7673,14.4235,11.6648a26.0567,26.0567,0,0,1,1.9389,10.4762,24.2285,24.2285,0,0,1-25.7209,9.218,17.1051,17.1051,0,0,0,14.971-4.1814c3.9233-3.8353,5.1-9.2492,3.3148-15.24-2.5857-8.6748-8.54-11.7683-12.981-10.97a5.86,5.86,0,0,0-3.7871,2.3006,5.6085,5.6085,0,0,0-.9064,4.3005,4.7681,4.7681,0,0,0,5.5331,3.8467,3.5762,3.5762,0,0,0,2.8708-4.2977s-.0326-.139.0539-.1617c.088-.0213.1419.1021.1419.1021a3.5094,3.5094,0,0,1,.0085,2.3233,4.0767,4.0767,0,0,1-3.0169,2.7035,5.244,5.244,0,0,1-6.3572-4.3261,5.794,5.794,0,0,1,1.4056-5.353A8.1758,8.1758,0,0,1,29.5483,17.74a19.9673,19.9673,0,0,1,8.7869-.2581c8.0876,1.624,12.9654,8.1287,15.66,13.4065l.1531.32q-.2467,1.0427-.5815,2.0454c-2.3446-5.7317-7.0692-12.88-15.0831-15.025a19.2436,19.2436,0,0,0-4.6423-.64c-.1177-.0029-.1263.0624-.0071.0765"/><path class="cls-5" d="M67.4171,50.0575a.2751.2751,0,0,1-.0822-.2014V42.14a.3074.3074,0,0,1,.0766-.2142.268.268,0,0,1,.207-.0822h3.1772a3.4426,3.4426,0,0,1,2.24.6694,2.3909,2.3909,0,0,1,.8184,1.9617,2.3611,2.3611,0,0,1-.8127,1.95,3.4735,3.4735,0,0,1-2.2453.6582H69.0284v2.7729a.2876.2876,0,0,1-.0766.2014.2682.2682,0,0,1-.2071.0823H67.6185a.2729.2729,0,0,1-.2014-.0823m3.319-4.2906a1.5434,1.5434,0,0,0,1.0553-.3262,1.2254,1.2254,0,0,0,.366-.9659,1.2921,1.2921,0,0,0-.3546-.966,1.4661,1.4661,0,0,0-1.0667-.3489h-1.73v2.607Z"/><path class="cls-5" d="M76.6,50.0576a.2765.2765,0,0,1-.0837-.2014V42.14a.305.305,0,0,1,.0766-.2141.27.27,0,0,1,.2085-.0823h3.0694a3.4722,3.4722,0,0,1,2.2694.6752,2.3448,2.3448,0,0,1,.8241,1.92,2.4259,2.4259,0,0,1-.4213,1.4525,2.35,2.35,0,0,1-1.1673.8467l1.73,3.0226a.2943.2943,0,0,1,.0369.13.232.232,0,0,1-.078.1773.2441.2441,0,0,1-.1716.0709h-1.078a.4439.4439,0,0,1-.2908-.0823.7775.7775,0,0,1-.1843-.2368l-1.5291-2.81H78.1642v2.8452a.2827.2827,0,0,1-.078.2014.2681.2681,0,0,1-.2071.0823h-1.078a.27.27,0,0,1-.2014-.0823m3.2354-4.3856a1.57,1.57,0,0,0,1.0722-.32,1.1661,1.1661,0,0,0,.3617-.9234,1.21,1.21,0,0,0-.3617-.9376,1.543,1.543,0,0,0-1.0722-.33H78.1642V45.672Z"/><path class="cls-5" d="M85.92,50.0574a.274.274,0,0,1-.0837-.2014V42.1286A.2743.2743,0,0,1,85.92,41.92a.2855.2855,0,0,1,.2014-.0766h1.1134a.2645.2645,0,0,1,.2851.2851V49.856a.2854.2854,0,0,1-.0766.2014.2725.2725,0,0,1-.2085.0836H86.1215a.2739.2739,0,0,1-.2014-.0836"/><path class="cls-5" d="M92.7418,49.8087l-2.5375-7.61-.0227-.1064a.2446.2446,0,0,1,.25-.25h1.0425a.36.36,0,0,1,.2426.0766.4243.4243,0,0,1,.1248.1844l2.0027,6.1047,2.0028-6.1047a.3523.3523,0,0,1,.1191-.1773.3625.3625,0,0,1,.2482-.0837h1.044a.2457.2457,0,0,1,.1716.0723.2308.2308,0,0,1,.0766.1773l-.0241.1064-2.5361,7.61a.4342.4342,0,0,1-.45.3319H93.1914a.4342.4342,0,0,1-.45-.3319"/><path class="cls-5" d="M98.7981,50.0693a.2274.2274,0,0,1-.078-.1773l.0241-.1064,2.8566-7.6451a.3833.3833,0,0,1,.4142-.2964h1.2921a.4071.4071,0,0,1,.4156.2964l2.8552,7.6451a.326.326,0,0,1,.0128.1064.2417.2417,0,0,1-.0709.1773.227.227,0,0,1-.166.0709h-1.0312a.3452.3452,0,0,1-.2368-.0709.3038.3038,0,0,1-.1064-.1546l-.5588-1.4454h-3.519l-.5575,1.4454a.3435.3435,0,0,1-.3432.2255H98.97a.2417.2417,0,0,1-.1716-.0709m5.2083-2.963-1.3517-3.6623-1.3376,3.6623Z"/><path class="cls-5" d="M110.2437,50.0574a.2744.2744,0,0,1-.0837-.2014V43.3016h-2.1914a.2773.2773,0,0,1-.2028-.0837.27.27,0,0,1-.0823-.2V42.14a.296.296,0,0,1,.0781-.2128.267.267,0,0,1,.207-.0837h6.0438a.2843.2843,0,0,1,.2964.2965v.8779a.27.27,0,0,1-.0823.2.29.29,0,0,1-.2141.0837h-2.18V49.856a.2786.2786,0,0,1-.0823.2014.2939.2939,0,0,1-.2141.0836h-1.0908a.2741.2741,0,0,1-.2014-.0836"/><path class="cls-5" d="M117.006,50.0574a.2744.2744,0,0,1-.0837-.2014V42.14a.296.296,0,0,1,.078-.2128.2694.2694,0,0,1,.2071-.0837h5.2154a.2864.2864,0,0,1,.2964.2965v.7829a.2691.2691,0,0,1-.0837.2071.301.301,0,0,1-.2127.0766h-3.9006v2.0978h3.64a.2963.2963,0,0,1,.2128.078.2691.2691,0,0,1,.0837.2071v.7347a.2694.2694,0,0,1-.0837.2071.3019.3019,0,0,1-.2128.0766h-3.64v2.17h3.9956a.2842.2842,0,0,1,.2965.2964v.7816a.2691.2691,0,0,1-.0837.207.296.296,0,0,1-.2128.078h-5.31a.2741.2741,0,0,1-.2014-.0836"/><path class="cls-5" d="M129.4632,50.0574a.2744.2744,0,0,1-.0837-.2014V42.14a.2964.2964,0,0,1,.078-.2128.2694.2694,0,0,1,.2071-.0837h1.078a.2694.2694,0,0,1,.2071.0837.296.296,0,0,1,.078.2128v3.058h3.4963V42.14a.296.296,0,0,1,.078-.2128.2672.2672,0,0,1,.2071-.0837h1.0666a.2841.2841,0,0,1,.295.2965v7.716a.268.268,0,0,1-.0822.207.2961.2961,0,0,1-.2128.078h-1.0666a.28.28,0,0,1-.2028-.0836.2727.2727,0,0,1-.0823-.2014V46.68h-3.4963V49.856a.2806.2806,0,0,1-.078.2014.2694.2694,0,0,1-.2071.0836h-1.078a.2741.2741,0,0,1-.2014-.0836"/><path class="cls-5" d="M140.0456,49.4415a3.2553,3.2553,0,0,1-.9475-2.43q-.0127-.3447-.0127-1.0085c0-.45.0042-.79.0127-1.0183a3.245,3.245,0,0,1,.9716-2.4184,4.1125,4.1125,0,0,1,4.9842,0,3.2323,3.2323,0,0,1,.9773,2.4184c.0156.4581.0241.7985.0241,1.0183q0,.3213-.0241,1.0085a3.2888,3.2888,0,0,1-.96,2.43,4.2723,4.2723,0,0,1-5.0253,0m3.7814-1.0255a2.122,2.122,0,0,0,.5092-1.4638q.0234-.7106.0241-.96,0-.2724-.0241-.96a2.1248,2.1248,0,0,0-.5092-1.4638,1.9017,1.9017,0,0,0-2.5247,0,2.1181,2.1181,0,0,0-.5092,1.4638c-.0085.23-.0128.5489-.0128.96q0,.6042.0128.96a2.1346,2.1346,0,0,0,.5035,1.4638,1.6782,1.6782,0,0,0,1.2624.4794,1.7,1.7,0,0,0,1.268-.4794"/><path class="cls-5" d="M150.13,49.9389a2.7239,2.7239,0,0,1-1.15-.8411,1.9807,1.9807,0,0,1-.4141-1.1262.2472.2472,0,0,1,.0709-.1787.2406.2406,0,0,1,.1773-.07h1.0553a.384.384,0,0,1,.22.0525.5519.5519,0,0,1,.1475.1716,1.2088,1.2088,0,0,0,.5447.6752,2.1358,2.1358,0,0,0,1.1631.2737,2.3412,2.3412,0,0,0,1.268-.2794.8777.8777,0,0,0,.4269-.7759.7265.7265,0,0,0-.22-.5446,1.7811,1.7811,0,0,0-.6525-.3688q-.4319-.1531-1.285-.3787a4.92,4.92,0,0,1-2.0453-.8837,1.9507,1.9507,0,0,1-.6454-1.57,2.0794,2.0794,0,0,1,.373-1.22,2.4971,2.4971,0,0,1,1.0794-.8425,4.0854,4.0854,0,0,1,1.6411-.3078,3.8415,3.8415,0,0,1,1.6822.3432,2.8137,2.8137,0,0,1,1.0851.86,1.9055,1.9055,0,0,1,.3971,1.0255.2446.2446,0,0,1-.25.25h-1.1021a.3423.3423,0,0,1-.3433-.2255.9607.9607,0,0,0-.4737-.634,1.8251,1.8251,0,0,0-.9957-.2554,1.89,1.89,0,0,0-1.0439.25.8081.8081,0,0,0-.3787.7219.7952.7952,0,0,0,.19.5461,1.6,1.6,0,0,0,.5986.3787,10.2152,10.2152,0,0,0,1.1786.3674,8.1693,8.1693,0,0,1,1.6652.5333,2.1836,2.1836,0,0,1,.9191.7461,2.058,2.058,0,0,1,.2965,1.15,2.1452,2.1452,0,0,1-.4213,1.3219,2.6179,2.6179,0,0,1-1.1843.86,4.8591,4.8591,0,0,1-1.76.2965,4.6606,4.6606,0,0,1-1.8141-.3206"/><path class="cls-5" d="M158.1042,50.0575a.2748.2748,0,0,1-.0823-.2014V42.14a.3074.3074,0,0,1,.0766-.2142.2681.2681,0,0,1,.2071-.0822h3.1771a3.4431,3.4431,0,0,1,2.24.6694,2.3912,2.3912,0,0,1,.8184,1.9617,2.3609,2.3609,0,0,1-.8128,1.95,3.4735,3.4735,0,0,1-2.2453.6582h-1.7673v2.7729a.2876.2876,0,0,1-.0766.2014.2681.2681,0,0,1-.207.0823h-1.1262a.2728.2728,0,0,1-.2014-.0823m3.319-4.2906a1.5431,1.5431,0,0,0,1.0552-.3262,1.2254,1.2254,0,0,0,.366-.9659,1.2917,1.2917,0,0,0-.3546-.966,1.466,1.466,0,0,0-1.0666-.3489h-1.7305v2.607Z"/><path class="cls-5" d="M167.2865,50.0574a.2744.2744,0,0,1-.0837-.2014V42.1286a.2746.2746,0,0,1,.0837-.2085.2857.2857,0,0,1,.2014-.0766h1.1134a.2645.2645,0,0,1,.2851.2851V49.856a.2854.2854,0,0,1-.0766.2014.2723.2723,0,0,1-.2085.0836h-1.1134a.2741.2741,0,0,1-.2014-.0836"/><path class="cls-5" d="M174.0778,50.0574a.2744.2744,0,0,1-.0837-.2014V43.3016h-2.1914a.2773.2773,0,0,1-.2028-.0837.27.27,0,0,1-.0822-.2V42.14a.296.296,0,0,1,.078-.2128.267.267,0,0,1,.207-.0837h6.0438a.2843.2843,0,0,1,.2964.2965v.8779a.2694.2694,0,0,1-.0823.2.29.29,0,0,1-.2141.0837h-2.18V49.856a.2786.2786,0,0,1-.0823.2014.2939.2939,0,0,1-.2141.0836h-1.0908a.2741.2741,0,0,1-.2014-.0836"/><path class="cls-5" d="M179.3017,50.0693a.2274.2274,0,0,1-.078-.1773l.0241-.1064,2.8566-7.6451a.3834.3834,0,0,1,.4142-.2964h1.2922a.407.407,0,0,1,.4155.2964l2.8552,7.6451a.326.326,0,0,1,.0128.1064.2417.2417,0,0,1-.0709.1773.2269.2269,0,0,1-.166.0709h-1.0311a.3453.3453,0,0,1-.2369-.0709.3038.3038,0,0,1-.1064-.1546l-.5588-1.4454h-3.519l-.5574,1.4454a.3437.3437,0,0,1-.3433.2255h-1.0312a.2417.2417,0,0,1-.1716-.0709m5.2083-2.963-1.3517-3.6623-1.3375,3.6623Z"/><path class="cls-5" d="M189.7458,50.0574a.2744.2744,0,0,1-.0837-.2014V42.1286a.2746.2746,0,0,1,.0837-.2085.2857.2857,0,0,1,.2014-.0766h1.1021a.2663.2663,0,0,1,.2851.2851V48.73h3.7573a.2862.2862,0,0,1,.2965.2964v.83a.2691.2691,0,0,1-.0837.207.2963.2963,0,0,1-.2128.078h-5.1445a.2741.2741,0,0,1-.2014-.0836"/><path class="cls-4" d="M69.77,67.8982v.6056a.39.39,0,0,1-.1064.2766.3728.3728,0,0,1-.2865.1149H68.0859a.3923.3923,0,0,1-.3929-.3915V57.6844a.3729.3729,0,0,1,.1149-.2865.4.4,0,0,1,.278-.1064h1.3886a.3667.3667,0,0,1,.3929.3929v3.6282a3.1546,3.1546,0,0,1,2.5162-1.0793,3.0857,3.0857,0,0,1,2.5332,1.0793,4.5563,4.5563,0,0,1,.9475,2.7943q.017.1956.017.5233c0,.2284-.0057.4085-.017.539a4.5569,4.5569,0,0,1-.9475,2.8269,3.1042,3.1042,0,0,1-2.5332,1.0623,3.1583,3.1583,0,0,1-2.6141-1.16m3.8892-2.7616c.01-.1092.0156-.2723.0156-.4908s-.0057-.3815-.0156-.4893q-.1149-2.1744-1.8793-2.1744a1.7149,1.7149,0,0,0-1.3971.58,2.258,2.258,0,0,0-.5149,1.3971l-.017.6213.017.6383a2.6463,2.6463,0,0,0,.5063,1.4864,1.65,1.65,0,0,0,1.4057.6043q1.7637,0,1.8793-2.173"/><path class="cls-4" d="M78.66,71.9024a.3142.3142,0,0,1-.0979-.23.5161.5161,0,0,1,.0653-.2609l1.2737-3.0226-3.1361-7.404a.6041.6041,0,0,1-.0652-.2283.4339.4339,0,0,1,.1135-.2539.3237.3237,0,0,1,.2453-.105h1.3234a.45.45,0,0,1,.4411.3092l2.173,5.3445,2.24-5.3445a.4509.4509,0,0,1,.4411-.3092h1.3078a.34.34,0,0,1,.2368.0979.3022.3022,0,0,1,.1064.2284.6463.6463,0,0,1-.0652.2609L80.637,71.69A.4817.4817,0,0,1,80.18,72H78.8881a.3134.3134,0,0,1-.2283-.0979"/><path class="cls-4" d="M90.36,68.781a.3779.3779,0,0,1-.1149-.278V57.8637a.4153.4153,0,0,1,.1064-.2936.3709.3709,0,0,1,.2865-.1149h1.4865a.3709.3709,0,0,1,.2865.1149.4153.4153,0,0,1,.1064.2936v4.2169h4.821V57.8637a.4092.4092,0,0,1,.1064-.2936.3678.3678,0,0,1,.2851-.1149h1.4709a.3933.3933,0,0,1,.4085.4085V68.503a.3709.3709,0,0,1-.1149.2865.413.413,0,0,1-.2936.1064H97.73a.39.39,0,0,1-.3915-.3929v-4.38h-4.821v4.38a.3938.3938,0,0,1-.1064.278.3709.3709,0,0,1-.2865.1149H90.638a.3779.3779,0,0,1-.278-.1149"/><path class="cls-4" d="M102.7384,68.0043a4.1868,4.1868,0,0,1-1.1348-2.9659l-.017-.4084.017-.4085a4.2058,4.2058,0,0,1,1.1518-2.9247,3.8878,3.8878,0,0,1,2.8679-1.0624,3.7973,3.7973,0,0,1,2.9829,1.1758,4.5308,4.5308,0,0,1,1.0539,3.1375v.3432a.3779.3779,0,0,1-.1149.278.3955.3955,0,0,1-.2936.1149h-5.4253v.13a2.5847,2.5847,0,0,0,.4978,1.512,1.5232,1.5232,0,0,0,1.2822.6127,1.8749,1.8749,0,0,0,1.5531-.7517.9755.9755,0,0,1,.2369-.2284.57.57,0,0,1,.2709-.05h1.4042a.3742.3742,0,0,1,.2539.0908.2732.2732,0,0,1,.1064.22,1.5292,1.5292,0,0,1-.4652.9234,3.8864,3.8864,0,0,1-1.3333.9234,4.8365,4.8365,0,0,1-2.01.3914,3.9309,3.9309,0,0,1-2.8849-1.0538m4.6991-4.0935v-.05a2.3661,2.3661,0,0,0-.4823-1.5517,1.6238,1.6238,0,0,0-1.3319-.5886A1.6032,1.6032,0,0,0,104.3,62.31a2.3949,2.3949,0,0,0-.4737,1.5517v.05Z"/><path class="cls-4" d="M112.3316,68.7235a2.7807,2.7807,0,0,1-1.095-.9063,2.2211,2.2211,0,0,1,.4993-3.0566,5.38,5.38,0,0,1,2.4665-.9319l2.24-.3262v-.3433a1.4726,1.4726,0,0,0-.3589-1.0794,1.5957,1.5957,0,0,0-1.1616-.3588,1.6607,1.6607,0,0,0-.8738.2042,2.8283,2.8283,0,0,0-.53.4c-.1319.1419-.2184.2355-.2623.278a.247.247,0,0,1-.2454.1958h-1.2581a.36.36,0,0,1-.2525-.0979.3323.3323,0,0,1-.1064-.261,1.7666,1.7666,0,0,1,.4-.9319,3.0215,3.0215,0,0,1,1.1844-.8992,4.6169,4.6169,0,0,1,1.9616-.3745A3.8973,3.8973,0,0,1,117.75,61.1a3.04,3.04,0,0,1,.8822,2.2723v5.1317a.39.39,0,0,1-.1064.2766.3707.3707,0,0,1-.2865.1149h-1.3233a.39.39,0,0,1-.3915-.3915v-.6383a2.6537,2.6537,0,0,1-1.0226.8581,3.6226,3.6226,0,0,1-1.6425.3348,3.4832,3.4832,0,0,1-1.5276-.3348m3.5545-1.8056a2.3661,2.3661,0,0,0,.5716-1.7162v-.3432l-1.634.2609a3.5991,3.5991,0,0,0-1.43.4738.9562.9562,0,0,0-.4823.8014.9339.9339,0,0,0,.4411.8184,1.8757,1.8757,0,0,0,1.0624.2936,1.9639,1.9639,0,0,0,1.4709-.5887"/><path class="cls-4" d="M120.8545,68.781a.3779.3779,0,0,1-.1149-.278V57.685a.3707.3707,0,0,1,.1149-.2865.3938.3938,0,0,1,.278-.1064h1.356a.3667.3667,0,0,1,.3929.3929V68.503a.3938.3938,0,0,1-.1064.278.3709.3709,0,0,1-.2865.1149h-1.356a.3779.3779,0,0,1-.278-.1149"/><path class="cls-4" d="M126.6645,68.1189a3.1687,3.1687,0,0,1-.7433-2.2794v-3.71h-1.2921a.3592.3592,0,0,1-.2766-.122.4008.4008,0,0,1-.1149-.2865v-.93a.3923.3923,0,0,1,.3915-.3929h1.2921V57.6853a.37.37,0,0,1,.1135-.2865.3934.3934,0,0,1,.278-.1064h1.3248a.3664.3664,0,0,1,.3914.3929v2.7119h2.0425a.3667.3667,0,0,1,.3929.3929v.93a.3987.3987,0,0,1-.1149.295.3821.3821,0,0,1-.278.1135h-2.0425V65.675a1.8911,1.8911,0,0,0,.2454,1.0624.9164.9164,0,0,0,.817.36h1.1276a.3779.3779,0,0,1,.278.1149.3821.3821,0,0,1,.1135.278v1.0128a.3989.3989,0,0,1-.105.278.3738.3738,0,0,1-.2865.1134h-1.3233a2.9511,2.9511,0,0,1-2.2311-.7758"/><path class="cls-4" d="M132.196,68.781a.3779.3779,0,0,1-.1149-.278V57.685a.3707.3707,0,0,1,.1149-.2865.3938.3938,0,0,1,.278-.1064h1.4539a.3666.3666,0,0,1,.3928.3929v3.7261a3.2632,3.2632,0,0,1,2.6467-1.1773,3.0911,3.0911,0,0,1,2.4028.9886,3.8509,3.8509,0,0,1,.8992,2.6879V68.503a.3938.3938,0,0,1-.1063.278.37.37,0,0,1-.2851.1149h-1.4723a.3726.3726,0,0,1-.2766-.1149.3779.3779,0,0,1-.1149-.278V64.01a2.1989,2.1989,0,0,0-.4666-1.4964,1.6961,1.6961,0,0,0-1.3475-.53,1.79,1.79,0,0,0-1.373.539,2.086,2.086,0,0,0-.5064,1.4879V68.503a.3938.3938,0,0,1-.1063.278.371.371,0,0,1-.2865.1149H132.474a.3779.3779,0,0,1-.278-.1149"/><path class="cls-4" d="M143.5051,68.6909a3.1985,3.1985,0,0,1-1.234-.8666,1.4746,1.4746,0,0,1-.4-.8567.3313.3313,0,0,1,.1134-.2624.3914.3914,0,0,1,.2624-.0979h1.2908a.31.31,0,0,1,.2454.1149c.0439.0326.1574.13.3418.2936a2.024,2.024,0,0,0,.6538.4085,2.2783,2.2783,0,0,0,.8341.1475,2.0306,2.0306,0,0,0,1.0793-.2624.8559.8559,0,0,0,.2369-1.2737,1.6273,1.6273,0,0,0-.678-.3844,11.845,11.845,0,0,0-1.4552-.3673,4.3738,4.3738,0,0,1-2.051-.8993,2.0632,2.0632,0,0,1-.661-1.6013,2.17,2.17,0,0,1,.3915-1.234,2.8186,2.8186,0,0,1,1.1688-.9475,4.2888,4.2888,0,0,1,1.8552-.3674,4.6916,4.6916,0,0,1,1.8949.35,3.3868,3.3868,0,0,1,1.2184.834,1.4031,1.4031,0,0,1,.4156.8581.3439.3439,0,0,1-.1064.2525.3367.3367,0,0,1-.2524.1063h-1.21a.4567.4567,0,0,1-.278-.1148,4.3026,4.3026,0,0,1-.3589-.3092,1.8275,1.8275,0,0,0-.5716-.36,2.0771,2.0771,0,0,0-.7687-.1305,1.489,1.489,0,0,0-.94.2624.8278.8278,0,0,0-.3348.6851.7694.7694,0,0,0,.1632.5063,1.55,1.55,0,0,0,.6382.3759,9.0342,9.0342,0,0,0,1.4227.36,4.4661,4.4661,0,0,1,2.2453.9645,2.1385,2.1385,0,0,1,.6794,1.6013,2.2007,2.2007,0,0,1-.9972,1.8624,4.7144,4.7144,0,0,1-2.7942.7191,5.0951,5.0951,0,0,1-2.0594-.3674"/><path class="cls-4" d="M151.847,68.062A3.7961,3.7961,0,0,1,150.7109,65.3l-.0157-.6539.0157-.6538a3.7913,3.7913,0,0,1,1.1361-2.7616,4.0367,4.0367,0,0,1,2.8679-.9971,4.695,4.695,0,0,1,2.1659.4567,3.3864,3.3864,0,0,1,1.3234,1.12,2.58,2.58,0,0,1,.4666,1.25.3243.3243,0,0,1-.1064.278.4052.4052,0,0,1-.2865.1135H156.84a.3974.3974,0,0,1-.2539-.0724.699.699,0,0,1-.17-.2539,1.9186,1.9186,0,0,0-.6454-.9148,1.7645,1.7645,0,0,0-1.0226-.278,1.6589,1.6589,0,0,0-1.3064.5319,2.4674,2.4674,0,0,0-.5063,1.6084l-.017.6057.017.539q.0637,2.14,1.8127,2.14a1.7479,1.7479,0,0,0,1.03-.2766,1.9376,1.9376,0,0,0,.6383-.9163.6919.6919,0,0,1,.17-.2524.3894.3894,0,0,1,.2539-.0738h1.4382a.4066.4066,0,0,1,.2865.1149.3216.3216,0,0,1,.1064.2766,2.566,2.566,0,0,1-.4581,1.2255,3.4656,3.4656,0,0,1-1.3078,1.129,4.5975,4.5975,0,0,1-2.19.4737,4.0429,4.0429,0,0,1-2.8679-.9971"/><path class="cls-4" d="M161.1714,68.07a3.8121,3.8121,0,0,1-1.129-2.7048l-.0156-.7191.0156-.7192a3.7847,3.7847,0,0,1,1.1446-2.6963,4.8381,4.8381,0,0,1,5.8835,0,3.7909,3.7909,0,0,1,1.1446,2.6963c.01.13.0156.37.0156.7192s-.0057.5886-.0156.7191a3.8169,3.8169,0,0,1-1.1276,2.7048,4.92,4.92,0,0,1-5.9161,0m4.2977-1.1772a2.5906,2.5906,0,0,0,.5234-1.61c.01-.1078.0156-.3205.0156-.6368s-.0057-.5291-.0156-.6369a2.5908,2.5908,0,0,0-.5234-1.61,1.9147,1.9147,0,0,0-2.6807,0,2.5815,2.5815,0,0,0-.522,1.61l-.017.6369.017.6368a2.5813,2.5813,0,0,0,.522,1.61,1.9144,1.9144,0,0,0,2.6807,0"/><path class="cls-4" d="M170.1752,71.8938a.3711.3711,0,0,1-.1149-.2866V60.7893a.3752.3752,0,0,1,.1149-.2866.3984.3984,0,0,1,.278-.1049h1.2907a.3646.3646,0,0,1,.3929.3915v.6538a3.0834,3.0834,0,0,1,2.614-1.21,3.1409,3.1409,0,0,1,2.5333,1.0382,4.45,4.45,0,0,1,.9474,2.8027c.0114.13.0171.322.0171.5716,0,.261-.0057.4582-.0171.5887a4.4521,4.4521,0,0,1-.9474,2.77,3.116,3.116,0,0,1-2.5333,1.0538,2.9434,2.9434,0,0,1-2.5162-1.16v3.709a.3665.3665,0,0,1-.3929.3929h-1.3885a.3934.3934,0,0,1-.278-.1063m5.8508-6.7572c.01-.1092.0156-.2723.0156-.4908s-.0057-.3815-.0156-.4893q-.1149-2.1744-1.8794-2.1744a1.646,1.646,0,0,0-1.4056.6057,2.6426,2.6426,0,0,0-.5064,1.4864l-.017.6213.017.6368a2.2544,2.2544,0,0,0,.5149,1.3971,1.7106,1.7106,0,0,0,1.3971.58q1.7638,0,1.8794-2.173"/><path class="cls-4" d="M180.8538,68.0043a4.1872,4.1872,0,0,1-1.1347-2.9659l-.017-.4084.017-.4085a4.2054,4.2054,0,0,1,1.1518-2.9247,3.8878,3.8878,0,0,1,2.8679-1.0624,3.7973,3.7973,0,0,1,2.9829,1.1758,4.5307,4.5307,0,0,1,1.0538,3.1375v.3432a.3779.3779,0,0,1-.1149.278.3951.3951,0,0,1-.2935.1149h-5.4254v.13a2.5855,2.5855,0,0,0,.4979,1.512,1.5232,1.5232,0,0,0,1.2822.6127,1.8749,1.8749,0,0,0,1.5531-.7517.9755.9755,0,0,1,.2369-.2284.57.57,0,0,1,.2709-.05h1.4042a.3742.3742,0,0,1,.2539.0908.2732.2732,0,0,1,.1064.22,1.5292,1.5292,0,0,1-.4652.9234,3.8864,3.8864,0,0,1-1.3333.9234,4.8365,4.8365,0,0,1-2.01.3914,3.9313,3.9313,0,0,1-2.885-1.0538m4.6992-4.0935v-.05a2.3661,2.3661,0,0,0-.4823-1.5517,1.6239,1.6239,0,0,0-1.3319-.5886,1.6032,1.6032,0,0,0-1.3233.5886,2.395,2.395,0,0,0-.4738,1.5517v.05Z"/></g></g></svg>